#Comment line ignore any data following # character 
#Hierarchical Translation and Rotation (.htr) file 
[Header]	
#Header keywords are followed by a single value 
FileType HTR		#Single word string
DataType HTRS		#Translation followed by rotation and scale data
FileVersion 1		#integer
NumSegments 84		#integer
NumFrames 2		#integer
DataFrameRate 30		#integer, data frame rate in this file
EulerRotationOrder ZYX
CalibrationUnits mm
RotationUnits Degrees
GlobalAxisofGravity Y
BoneLengthAxis Y
ScaleFactor 1.00
[SegmentNames&Hierarchy]
#CHILD	PARENT
MASTER GLOBAL
root MASTER
chest root
L_mid_tent01 root
R_mid_tent01 root
spine01 root
Bip01_Neck chest
L_humerus chest
R_humerus chest
weapon_bone chest
Bip01_Head Bip01_Neck
eye_left_bone Bip01_Head
eye_right_bone Bip01_Head
L_forearm L_humerus
L_front_hand L_forearm
L_weapon_bone L_forearm
L_front_hand01_01 L_front_hand
L_front_hand02_01 L_front_hand
L_front_hand03_01 L_front_hand
L_front_hand01_02 L_front_hand01_01
L_front_hand02_02 L_front_hand02_01
L_front_hand03_02 L_front_hand03_01
R_forearm R_humerus
R_front_hand R_forearm
R_weapon_bone R_forearm
R_front_hand01_01 R_front_hand
R_front_hand02_01 R_front_hand
R_front_hand03_01 R_front_hand
R_front_hand01_02 R_front_hand01_01
R_front_hand02_02 R_front_hand02_01
R_front_hand03_02 R_front_hand03_01
null_rope01_connect L_mid_tent01
Rope1_Seg01 null_rope01_connect
Rope1_Seg02 Rope1_Seg01
Rope1_Seg03 Rope1_Seg02
Rope1_Seg04 Rope1_Seg03
Rope1_Seg05 Rope1_Seg04
Rope1_Seg06 Rope1_Seg05
Rope1_Seg07 Rope1_Seg06
Rope1_Seg09 Rope1_Seg07
L_mid_hand01 Rope1_Seg09
L_mid_hand02 Rope1_Seg09
L_mid_hand03 Rope1_Seg09
null_rope02_connect R_mid_tent01
Rope2_Seg01 null_rope02_connect
Rope2_Seg02 Rope2_Seg01
Rope2_Seg03 Rope2_Seg02
Rope2_Seg04 Rope2_Seg03
Rope2_Seg05 Rope2_Seg04
Rope2_Seg06 Rope2_Seg05
Rope2_Seg07 Rope2_Seg06
Rope2_Seg09 Rope2_Seg07
R_mid_hand01 Rope2_Seg09
R_mid_hand02 Rope2_Seg09
R_mid_hand03 Rope2_Seg09
spine02 spine01
spine03 spine02
pelvis spine03
null_rope03_connect pelvis
null_rope04_connect pelvis
Rope3_Seg01 null_rope03_connect
Rope3_Seg02 Rope3_Seg01
Rope3_Seg03 Rope3_Seg02
Rope3_Seg04 Rope3_Seg03
Rope3_Seg05 Rope3_Seg04
Rope3_Seg06 Rope3_Seg05
Rope3_Seg07 Rope3_Seg06
Rope3_Seg08 Rope3_Seg07
Rope3_Seg09 Rope3_Seg08
R_rear_hand01 Rope3_Seg09
R_rear_hand02 Rope3_Seg09
R_rear_hand03 Rope3_Seg09
Rope4_Seg01 null_rope04_connect
Rope4_Seg02 Rope4_Seg01
Rope4_Seg03 Rope4_Seg02
Rope4_Seg04 Rope4_Seg03
Rope4_Seg05 Rope4_Seg04
Rope4_Seg06 Rope4_Seg05
Rope4_Seg07 Rope4_Seg06
Rope4_Seg08 Rope4_Seg07
Rope4_Seg09 Rope4_Seg08
L_rear_hand01 Rope4_Seg09
L_rear_hand02 Rope4_Seg09
L_rear_hand03 Rope4_Seg09
[BasePosition]
#SegmentName Tx, Ty, Tz, Rx, Ry, Rz, BoneLength
MASTER 0.000000 0.000000 0.000000 -90.000000 0.000000 0.000000 10.000000 
root 0.000000 0.000000 0.000000 0.000000 0.000000 0.000000 10.000000 
chest 0.000000 0.000000 0.000000 0.000000 0.000000 0.000000 10.000000 
L_mid_tent01 0.000000 0.000000 0.000000 0.000000 0.000000 0.000000 10.000000 
R_mid_tent01 0.000000 0.000000 0.000000 0.000000 0.000000 0.000000 10.000000 
spine01 0.000000 0.000000 0.000000 0.000000 0.000000 0.000000 10.000000 
Bip01_Neck 0.000000 0.000000 0.000000 0.000000 0.000000 0.000000 10.000000 
L_humerus 0.000000 0.000000 0.000000 0.000000 0.000000 0.000000 10.000000 
R_humerus 0.000000 0.000000 0.000000 0.000000 0.000000 0.000000 10.000000 
weapon_bone 0.000000 0.000000 0.000000 0.000000 0.000000 0.000000 10.000000 
Bip01_Head 0.000000 0.000000 0.000000 0.000000 0.000000 0.000000 10.000000 
eye_left_bone 0.000000 0.000000 0.000000 0.000000 0.000000 0.000000 10.000000 
eye_right_bone 0.000000 0.000000 0.000000 0.000000 0.000000 0.000000 10.000000 
L_forearm 0.000000 0.000000 0.000000 0.000000 0.000000 0.000000 10.000000 
L_front_hand 0.000000 0.000000 0.000000 0.000000 0.000000 0.000000 10.000000 
L_weapon_bone 0.000000 0.000000 0.000000 0.000000 0.000000 0.000000 10.000000 
L_front_hand01_01 0.000000 0.000000 0.000000 0.000000 0.000000 0.000000 10.000000 
L_front_hand02_01 0.000000 0.000000 0.000000 0.000000 0.000000 0.000000 10.000000 
L_front_hand03_01 0.000000 0.000000 0.000000 0.000000 0.000000 0.000000 10.000000 
L_front_hand01_02 0.000000 0.000000 0.000000 0.000000 0.000000 0.000000 10.000000 
L_front_hand02_02 0.000000 0.000000 0.000000 0.000000 0.000000 0.000000 10.000000 
L_front_hand03_02 0.000000 0.000000 0.000000 0.000000 0.000000 0.000000 10.000000 
R_forearm 0.000000 0.000000 0.000000 0.000000 0.000000 0.000000 10.000000 
R_front_hand 0.000000 0.000000 0.000000 0.000000 0.000000 0.000000 10.000000 
R_weapon_bone 0.000000 0.000000 0.000000 0.000000 0.000000 0.000000 10.000000 
R_front_hand01_01 0.000000 0.000000 0.000000 0.000000 0.000000 0.000000 10.000000 
R_front_hand02_01 0.000000 0.000000 0.000000 0.000000 0.000000 0.000000 10.000000 
R_front_hand03_01 0.000000 0.000000 0.000000 0.000000 0.000000 0.000000 10.000000 
R_front_hand01_02 0.000000 0.000000 0.000000 0.000000 0.000000 0.000000 10.000000 
R_front_hand02_02 0.000000 0.000000 0.000000 0.000000 0.000000 0.000000 10.000000 
R_front_hand03_02 0.000000 0.000000 0.000000 0.000000 0.000000 0.000000 10.000000 
null_rope01_connect 0.000000 0.000000 0.000000 0.000000 0.000000 0.000000 10.000000 
Rope1_Seg01 0.000000 0.000000 0.000000 0.000000 0.000000 0.000000 10.000000 
Rope1_Seg02 0.000000 0.000000 0.000000 0.000000 0.000000 0.000000 10.000000 
Rope1_Seg03 0.000000 0.000000 0.000000 0.000000 0.000000 0.000000 10.000000 
Rope1_Seg04 0.000000 0.000000 0.000000 0.000000 0.000000 0.000000 10.000000 
Rope1_Seg05 0.000000 0.000000 0.000000 0.000000 0.000000 0.000000 10.000000 
Rope1_Seg06 0.000000 0.000000 0.000000 0.000000 0.000000 0.000000 10.000000 
Rope1_Seg07 0.000000 0.000000 0.000000 0.000000 0.000000 0.000000 10.000000 
Rope1_Seg09 0.000000 0.000000 0.000000 0.000000 0.000000 0.000000 10.000000 
L_mid_hand01 0.000000 0.000000 0.000000 0.000000 0.000000 0.000000 10.000000 
L_mid_hand02 0.000000 0.000000 0.000000 0.000000 0.000000 0.000000 10.000000 
L_mid_hand03 0.000000 0.000000 0.000000 0.000000 0.000000 0.000000 10.000000 
null_rope02_connect 0.000000 0.000000 0.000000 0.000000 0.000000 0.000000 10.000000 
Rope2_Seg01 0.000000 0.000000 0.000000 0.000000 0.000000 0.000000 10.000000 
Rope2_Seg02 0.000000 0.000000 0.000000 0.000000 0.000000 0.000000 10.000000 
Rope2_Seg03 0.000000 0.000000 0.000000 0.000000 0.000000 0.000000 10.000000 
Rope2_Seg04 0.000000 0.000000 0.000000 0.000000 0.000000 0.000000 10.000000 
Rope2_Seg05 0.000000 0.000000 0.000000 0.000000 0.000000 0.000000 10.000000 
Rope2_Seg06 0.000000 0.000000 0.000000 0.000000 0.000000 0.000000 10.000000 
Rope2_Seg07 0.000000 0.000000 0.000000 0.000000 0.000000 0.000000 10.000000 
Rope2_Seg09 0.000000 0.000000 0.000000 0.000000 0.000000 0.000000 10.000000 
R_mid_hand01 0.000000 0.000000 0.000000 0.000000 0.000000 0.000000 10.000000 
R_mid_hand02 0.000000 0.000000 0.000000 0.000000 0.000000 0.000000 10.000000 
R_mid_hand03 0.000000 0.000000 0.000000 0.000000 0.000000 0.000000 10.000000 
spine02 0.000000 0.000000 0.000000 0.000000 0.000000 0.000000 10.000000 
spine03 0.000000 0.000000 0.000000 0.000000 0.000000 0.000000 10.000000 
pelvis 0.000000 0.000000 0.000000 0.000000 0.000000 0.000000 10.000000 
null_rope03_connect 0.000000 0.000000 0.000000 0.000000 0.000000 0.000000 10.000000 
null_rope04_connect 0.000000 0.000000 0.000000 0.000000 0.000000 0.000000 10.000000 
Rope3_Seg01 0.000000 0.000000 0.000000 0.000000 0.000000 0.000000 10.000000 
Rope3_Seg02 0.000000 0.000000 0.000000 0.000000 0.000000 0.000000 10.000000 
Rope3_Seg03 0.000000 0.000000 0.000000 0.000000 0.000000 0.000000 10.000000 
Rope3_Seg04 0.000000 0.000000 0.000000 0.000000 0.000000 0.000000 10.000000 
Rope3_Seg05 0.000000 0.000000 0.000000 0.000000 0.000000 0.000000 10.000000 
Rope3_Seg06 0.000000 0.000000 0.000000 0.000000 0.000000 0.000000 10.000000 
Rope3_Seg07 0.000000 0.000000 0.000000 0.000000 0.000000 0.000000 10.000000 
Rope3_Seg08 0.000000 0.000000 0.000000 0.000000 0.000000 0.000000 10.000000 
Rope3_Seg09 0.000000 0.000000 0.000000 0.000000 0.000000 0.000000 10.000000 
R_rear_hand01 0.000000 0.000000 0.000000 0.000000 0.000000 0.000000 10.000000 
R_rear_hand02 0.000000 0.000000 0.000000 0.000000 0.000000 0.000000 10.000000 
R_rear_hand03 0.000000 0.000000 0.000000 0.000000 0.000000 0.000000 10.000000 
Rope4_Seg01 0.000000 0.000000 0.000000 0.000000 0.000000 0.000000 10.000000 
Rope4_Seg02 0.000000 0.000000 0.000000 0.000000 0.000000 0.000000 10.000000 
Rope4_Seg03 0.000000 0.000000 0.000000 0.000000 0.000000 0.000000 10.000000 
Rope4_Seg04 0.000000 0.000000 0.000000 0.000000 0.000000 0.000000 10.000000 
Rope4_Seg05 0.000000 0.000000 0.000000 0.000000 0.000000 0.000000 10.000000 
Rope4_Seg06 0.000000 0.000000 0.000000 0.000000 0.000000 0.000000 10.000000 
Rope4_Seg07 0.000000 0.000000 0.000000 0.000000 0.000000 0.000000 10.000000 
Rope4_Seg08 0.000000 0.000000 0.000000 0.000000 0.000000 0.000000 10.000000 
Rope4_Seg09 0.000000 0.000000 0.000000 0.000000 0.000000 0.000000 10.000000 
L_rear_hand01 0.000000 0.000000 0.000000 0.000000 0.000000 0.000000 10.000000 
L_rear_hand02 0.000000 0.000000 0.000000 0.000000 0.000000 0.000000 10.000000 
L_rear_hand03 0.000000 0.000000 0.000000 0.000000 0.000000 0.000000 10.000000 
#Beginning of Data. Separated by tabs
#Fr	Tx	Ty	Tz	Rx	Ry	Rz	SF
[MASTER]
22 0.000000 0.000000 0.000000 0.001660 0.001660 0.001660 0.000000
23 0.000000 0.000000 0.000000 0.001660 0.001660 0.001660 0.000000
[root]
22 -162.869171 440.811218 1609.845703 -104.848038 -25.841471 -33.257214 1677.034302
23 -153.602600 404.884430 1629.811890 -104.762917 -28.194252 -35.766350 1686.360596
[chest]
22 -84.512650 -34.090519 0.000000 -2.604267 1.454040 -177.135269 91.129311
23 -84.512650 -34.090519 0.000000 -3.970949 1.800844 -177.411072 91.129311
[L_mid_tent01]
22 27.299099 22.179153 -249.918900 -22.607376 47.922508 22.029440 252.381866
23 27.299099 22.179148 -249.918915 -22.197912 45.145050 22.359894 252.381882
[R_mid_tent01]
22 23.228794 24.509907 226.238495 170.300278 -15.183547 70.627113 228.744751
23 23.228794 24.509907 226.238495 173.589676 -13.429861 64.474182 228.744751
[spine01]
22 -0.361383 -0.195265 0.000000 -0.040360 -0.017223 22.349236 0.410763
23 -0.361383 -0.195265 0.000000 -0.033894 -0.014312 22.301344 0.410763
[Bip01_Neck]
22 165.484543 71.581718 0.000119 175.896118 1.177290 24.871183 180.302734
23 165.484543 71.581718 0.000119 175.896118 1.177290 24.871183 180.302734
[L_humerus]
22 -13.983130 -135.272980 -120.471481 -5.153977 67.000946 84.895905 181.680161
23 -13.983130 -135.272980 -120.471481 -5.206172 67.326942 84.844505 181.680161
[R_humerus]
22 -13.983309 -135.273102 125.287651 92.369217 -65.579094 -5.972454 184.909012
23 -13.983309 -135.273102 125.287651 175.197113 -74.644173 -91.825829 184.909012
[weapon_bone]
22 235.964890 -300.705902 0.000000 0.000000 -89.951546 -128.212341 382.234833
23 235.964890 -300.705902 0.000000 0.000000 -89.951546 -128.212341 382.234833
[Bip01_Head]
22 234.097137 207.431198 -10.730115 -46.488132 11.976347 -56.573746 312.960571
23 233.853409 208.311447 -10.766916 -46.250359 12.797720 -55.783825 313.364014
[eye_left_bone]
22 1.084058 120.109169 -57.562870 0.000000 -90.000000 -99.840431 133.194855
23 0.923611 120.142509 -57.607822 0.000000 -90.000000 -99.840431 133.243149
[eye_right_bone]
22 1.089119 120.106789 71.537651 0.000000 -89.965736 80.156380 139.801498
23 0.928646 120.140152 71.492683 0.000000 -89.965736 80.156380 139.806015
[L_forearm]
22 322.776093 0.000000 -0.000119 0.000412 -0.002311 -110.199417 322.776093
23 322.776093 0.000000 -0.000119 0.000409 -0.002311 -110.066795 322.776093
[L_front_hand]
22 241.149185 -0.042021 -3.300071 -178.667953 -1.835447 -27.422342 241.171753
23 241.149185 -0.042021 -3.300071 -178.667953 -1.835447 -27.422350 241.171753
[L_weapon_bone]
22 156.183838 0.000000 0.000000 0.000014 0.000007 0.000001 156.183838
23 156.183838 0.000000 0.000000 0.000014 0.000007 0.000001 156.183838
[L_front_hand01_01]
22 86.095154 20.947098 -0.655860 -0.366594 -0.477154 75.385574 88.609184
23 86.095154 20.947098 -0.655860 -0.366594 -0.477154 75.385574 88.609184
[L_front_hand02_01]
22 86.935165 -11.437475 24.513514 154.403519 -59.888931 -61.371990 91.046425
23 86.935165 -11.437475 24.513514 154.403519 -59.888931 -61.371990 91.046425
[L_front_hand03_01]
22 86.637497 -14.123976 -20.424902 -153.913849 58.118130 -62.702866 90.126129
23 86.637497 -14.123976 -20.424902 -153.913849 58.118122 -62.702866 90.126129
[L_front_hand01_02]
22 71.020905 -0.000179 0.000030 0.000334 -0.002323 -106.379684 71.020905
23 71.020905 -0.000179 0.000030 0.000334 -0.002323 -106.379684 71.020905
[L_front_hand02_02]
22 71.020927 -0.000119 0.000060 0.000334 -0.002323 -106.379684 71.020927
23 71.020927 -0.000119 0.000060 0.000334 -0.002323 -106.379684 71.020927
[L_front_hand03_02]
22 71.020905 -0.000060 0.000060 0.000334 -0.002323 -106.379684 71.020905
23 71.020905 -0.000060 0.000060 0.000334 -0.002323 -106.379684 71.020905
[R_forearm]
22 322.776428 -0.000060 0.000030 0.093202 -0.189489 -27.121513 322.776428
23 322.776428 -0.000060 0.000030 0.191215 -0.092299 -65.767159 322.776428
[R_front_hand]
22 238.847015 -0.006795 2.210259 65.694016 11.839190 -22.372618 238.857239
23 238.847015 -0.006795 2.210259 58.699501 12.571149 -26.008224 238.857239
[R_weapon_bone]
22 155.664093 0.002503 -0.000030 0.003487 0.001180 -90.988930 155.664078
23 155.664093 0.002503 -0.000030 0.003487 0.001180 -90.988930 155.664078
[R_front_hand01_01]
22 87.624611 14.231146 22.918642 -154.633484 -59.950619 61.746037 91.683487
23 87.624611 14.231146 22.918642 -154.633499 -59.950634 61.746063 91.683487
[R_front_hand02_01]
22 89.356956 14.367283 -19.491137 154.602661 58.302856 63.744389 92.579636
23 89.356956 14.367283 -19.491137 154.602661 58.302849 63.744389 92.579636
[R_front_hand03_01]
22 87.286232 -22.307278 -0.143439 0.162155 -0.423168 -75.767921 90.091743
23 87.286232 -22.307278 -0.143439 0.162155 -0.423168 -75.767921 90.091743
[R_front_hand01_02]
22 71.020905 0.000060 0.000119 0.002323 -0.000334 106.381714 71.020905
23 71.020905 0.000060 0.000119 0.002323 -0.000334 106.381714 71.020905
[R_front_hand02_02]
22 71.020844 -0.000030 -0.000119 0.002323 -0.000334 106.381714 71.020836
23 71.020844 -0.000030 -0.000119 0.002323 -0.000334 106.381714 71.020836
[R_front_hand03_02]
22 71.020905 0.000000 0.000030 0.002323 -0.000334 106.381714 71.020905
23 71.020905 0.000000 0.000030 0.002323 -0.000334 106.381714 71.020905
[null_rope01_connect]
22 328.732483 0.000000 -0.000238 -173.414688 -62.272182 -82.846642 328.732483
23 328.732483 0.000000 -0.000238 -172.712845 -63.769310 -82.707932 328.732483
[Rope1_Seg01]
22 0.000042 -0.000047 0.000107 12.683058 -8.730051 -95.228073 0.000124
23 0.000046 -0.000046 0.000112 14.297129 -11.688898 -95.005646 0.000129
[Rope1_Seg02]
22 139.999863 -0.000179 0.000000 7.778438 1.962194 -10.216093 139.999863
23 139.999863 -0.000179 0.000000 7.555146 4.097411 -12.655056 139.999863
[Rope1_Seg03]
22 139.999924 0.000060 -0.000060 51.064713 1.085268 -26.471100 139.999924
23 139.999924 0.000060 -0.000060 63.723560 4.812116 -29.465204 139.999924
[Rope1_Seg04]
22 139.999924 -0.000060 -0.000119 66.452568 -31.843674 -28.641685 139.999924
23 139.999924 -0.000060 -0.000119 60.562748 -29.701040 -20.598492 139.999924
[Rope1_Seg05]
22 139.999832 0.000119 -0.000060 8.532018 -30.881769 5.986893 139.999832
23 139.999832 0.000119 -0.000060 7.179143 -19.746775 5.811557 139.999832
[Rope1_Seg06]
22 139.999954 0.000119 -0.000060 -0.355746 -27.620762 7.070817 139.999954
23 139.999954 0.000119 -0.000060 3.064753 -23.776966 7.117869 139.999954
[Rope1_Seg07]
22 139.999985 0.000060 0.000000 -1.563257 -10.803842 3.513505 139.999985
23 139.999985 0.000060 0.000000 -0.784177 -16.432367 6.579559 139.999985
[Rope1_Seg09]
22 121.602913 0.000119 -0.000089 -89.793175 -1.359789 0.847147 121.602913
23 121.602913 0.000119 -0.000089 -89.793175 -1.359789 0.847147 121.602913
[L_mid_hand01]
22 103.859421 1.038730 8.195221 114.520287 -53.310486 -20.623234 104.187431
23 103.859421 1.038730 8.195221 114.520287 -53.310486 -20.623234 104.187431
[L_mid_hand02]
22 105.572853 -4.139662 -10.864139 -155.067673 38.166626 -52.448818 106.211075
23 105.572853 -4.139662 -10.864139 -155.067673 38.166626 -52.448818 106.211075
[L_mid_hand03]
22 104.641464 17.579376 -3.913581 -10.970130 15.317461 57.626949 106.179977
23 104.641464 17.579376 -3.913581 -10.970130 15.317461 57.626949 106.179977
[null_rope02_connect]
22 328.732849 0.000179 -0.000119 -79.908737 21.674946 50.022213 328.732849
23 328.732849 0.000179 -0.000119 -78.604836 27.515650 43.025761 328.732849
[Rope2_Seg01]
22 0.000095 0.000153 0.000053 -24.732180 -18.292845 -2.251759 0.000188
23 0.000095 0.000153 0.000056 -29.558037 -14.114666 1.233981 0.000188
[Rope2_Seg02]
22 139.999741 -0.000060 -0.000119 -8.708195 4.915702 12.327709 139.999756
23 139.999741 -0.000060 -0.000119 -11.414751 5.927964 17.636202 139.999756
[Rope2_Seg03]
22 140.000107 0.000030 0.000000 -13.027719 5.246137 25.284037 140.000107
23 140.000107 0.000030 0.000000 -9.881495 1.444484 21.465797 140.000107
[Rope2_Seg04]
22 139.999802 0.000000 -0.000060 -8.871754 -2.840859 31.956440 139.999802
23 139.999802 0.000000 -0.000060 -4.440714 -2.432338 15.189052 139.999802
[Rope2_Seg05]
22 139.999985 -0.000060 0.000119 -1.043774 -0.706774 18.928242 139.999985
23 139.999985 -0.000060 0.000119 -2.760671 1.953912 16.023258 139.999985
[Rope2_Seg06]
22 139.999893 -0.000030 -0.000119 2.274727 3.883727 22.413574 139.999893
23 139.999893 -0.000030 -0.000119 -1.303887 4.728604 24.951244 139.999893
[Rope2_Seg07]
22 139.999893 0.000060 -0.000060 3.067020 2.281745 17.759354 139.999893
23 139.999893 0.000060 -0.000060 0.358346 1.533457 16.814342 139.999893
[Rope2_Seg09]
22 121.338966 0.000089 -0.000060 136.879395 0.546403 -1.506369 121.338966
23 121.338966 0.000089 -0.000060 136.879395 0.546403 -1.506368 121.338966
[R_mid_hand01]
22 104.680779 11.144459 -10.335981 -30.020472 38.652863 49.958210 105.778534
23 104.680779 11.144459 -10.335981 -32.074165 37.059315 46.609432 105.778534
[R_mid_hand02]
22 104.070427 2.443552 8.231699 65.242203 -53.678970 20.920401 104.424065
23 104.070427 2.443552 8.231699 66.859093 -50.858822 18.874325 104.424065
[R_mid_hand03]
22 106.028137 -11.221827 -5.996406 -172.708420 14.068862 -59.528877 106.788818
23 106.028137 -11.221827 -5.996406 -171.953873 13.656523 -56.375946 106.788818
[spine02]
22 129.756927 0.001550 0.000119 -0.095253 -12.848156 -5.374646 129.756927
23 129.756927 0.001550 0.000119 -0.004397 -12.055670 -6.067994 129.756927
[spine03]
22 78.614044 0.081528 -4.899010 1.958318 3.800913 17.417795 78.766579
23 78.614044 0.081523 -4.899010 1.947206 3.807039 17.256077 78.766579
[pelvis]
22 169.435242 0.051022 0.000000 -0.061581 -0.179848 14.797876 169.435257
23 169.435242 0.051022 0.000000 -0.061391 -0.179912 14.677174 169.435257
[null_rope03_connect]
22 -1.257226 -2.466202 137.391083 106.198166 -29.739567 -32.917686 137.418976
23 -1.257226 -2.466202 137.391083 106.743050 -33.459984 -30.496904 137.418976
[null_rope04_connect]
22 -1.259640 -2.480268 -137.844437 106.198166 -29.739567 -32.917686 137.872513
23 -1.259640 -2.480268 -137.844437 106.743050 -33.459984 -30.496904 137.872513
[Rope3_Seg01]
22 0.000000 0.000000 0.000000 104.291008 -72.762085 28.787632 0.000000
23 0.000000 0.000000 0.000000 119.870010 -70.077766 15.078122 0.000000
[Rope3_Seg02]
22 139.999924 -0.000119 0.000060 -4.553997 4.523893 -5.173003 139.999924
23 139.999924 -0.000119 0.000060 -6.249712 4.014419 -7.612355 139.999924
[Rope3_Seg03]
22 139.999924 -0.000119 0.000119 -8.117785 7.842051 -7.746623 139.999924
23 139.999924 -0.000119 0.000119 -13.348073 8.014293 -12.101321 139.999924
[Rope3_Seg04]
22 139.999924 0.000119 0.000000 -14.837570 14.367607 -11.853447 139.999924
23 139.999924 0.000119 0.000000 -27.279287 16.522966 -18.472601 139.999924
[Rope3_Seg05]
22 139.999924 -0.000238 0.000060 -17.949474 19.851254 -13.324630 139.999924
23 139.999924 -0.000238 0.000060 -20.628260 21.581741 -9.302235 139.999924
[Rope3_Seg06]
22 139.999893 -0.000119 -0.000060 -7.100755 19.371347 -0.050522 139.999893
23 139.999893 -0.000119 -0.000060 -5.100326 17.593559 4.980165 139.999893
[Rope3_Seg07]
22 139.999771 0.000060 -0.000119 1.708295 26.253572 13.179749 139.999771
23 139.999771 0.000060 -0.000119 0.793671 20.159718 12.478693 139.999771
[Rope3_Seg08]
22 139.999985 -0.000060 0.000000 5.377025 19.808439 9.724944 139.999985
23 139.999985 -0.000060 0.000000 2.128511 13.397515 6.550211 139.999985
[Rope3_Seg09]
22 90.185997 -0.000179 -0.000060 98.366081 -1.357471 -0.847052 90.185997
23 90.185997 -0.000179 -0.000060 159.792526 -1.358243 -0.846482 90.185997
[R_rear_hand01]
22 103.366196 -6.073594 -10.757982 -156.049316 6.070419 -2.795869 104.101845
23 103.366196 -6.073594 -10.757982 -156.049316 6.070419 -2.795869 104.101845
[R_rear_hand02]
22 100.509819 12.039542 -7.992327 -38.708435 1.958051 5.461186 101.543350
23 100.509819 12.039542 -7.992327 -38.708435 1.958051 5.461186 101.543350
[R_rear_hand03]
22 101.539970 5.215704 5.435467 84.307625 -2.361032 4.099037 101.819031
23 101.539970 5.215704 5.435467 84.307625 -2.361032 4.099037 101.819031
[Rope4_Seg01]
22 -0.000012 -0.000023 -0.000153 -55.785992 -5.967032 0.008468 0.000155
23 -0.000012 -0.000020 -0.000153 -54.046852 -5.593529 -1.050694 0.000154
[Rope4_Seg02]
22 139.999985 0.000060 0.000119 -19.444500 -5.670875 8.243262 139.999985
23 139.999985 0.000060 0.000119 -22.584438 -4.182418 9.601500 139.999985
[Rope4_Seg03]
22 139.999924 0.000000 -0.000238 -26.878889 -17.813751 13.626467 139.999924
23 139.999924 0.000000 -0.000238 -31.501505 -15.368660 15.450525 139.999924
[Rope4_Seg04]
22 139.999985 0.000000 0.000119 -15.610524 -43.158634 8.615304 139.999985
23 139.999985 0.000000 0.000119 -18.557186 -39.008251 10.086389 139.999985
[Rope4_Seg05]
22 139.999802 -0.000060 -0.000119 0.156831 -22.483652 0.817642 139.999802
23 139.999802 -0.000060 -0.000119 -1.254918 -21.432064 0.309652 139.999802
[Rope4_Seg06]
22 139.999924 0.000000 0.000060 2.371001 -11.956453 5.565205 139.999924
23 139.999924 0.000000 0.000060 0.606914 -10.772922 4.968447 139.999924
[Rope4_Seg07]
22 139.999802 0.000000 0.000000 4.386693 -13.141939 5.557079 139.999802
23 139.999802 0.000000 0.000000 2.720804 -15.223872 7.560150 139.999802
[Rope4_Seg08]
22 139.999924 0.000000 0.000119 2.773347 -8.630014 3.916036 139.999924
23 139.999924 0.000000 0.000119 2.840362 -12.812628 5.739128 139.999924
[Rope4_Seg09]
22 90.185791 0.000060 0.000060 -135.617828 2.228885 0.850567 90.185791
23 90.185791 0.000060 0.000060 -135.617828 2.228885 0.850567 90.185791
[L_rear_hand01]
22 101.696655 -8.392275 -7.654577 -19.915020 -33.950905 119.950104 102.329041
23 101.696655 -8.392275 -7.654577 -19.915020 -33.950905 119.950104 102.329041
[L_rear_hand02]
22 102.726799 -1.568258 5.773216 77.862221 61.878510 165.399200 102.900848
23 102.726799 -1.568258 5.773216 77.862221 61.878510 165.399200 102.900848
[L_rear_hand03]
22 104.552910 9.721220 -10.420293 -173.099182 -23.740307 -117.327896 105.519653
23 104.552910 9.721220 -10.420293 -173.099182 -23.740307 -117.327896 105.519653
